<svg xmlns="http://www.w3.org/2000/svg" viewBox="0 0 26.8 26.24"><defs><style>.cls-1{fill:#fff;}</style></defs><g id="Layer_2" data-name="Layer 2"><g id="Layer_1-2" data-name="Layer 1"><path class="cls-1" d="M13.4,0A13.26,13.26,0,0,0,0,13.12,13.27,13.27,0,0,0,13.4,26.24,13.27,13.27,0,0,0,26.8,13.12,13.26,13.26,0,0,0,13.4,0m6.88,18.74-.33.32-3.52-3.45,0,0,.44-.44a1,1,0,0,1,1.48,0l2,1.9a1.18,1.18,0,0,1,0,1.7m-.78.76-.38.38c-.85.83-5.18.24-9-3.53s-4.44-8-3.59-8.83l.38-.38,3.56,3.49-.11.13c-.42.53.44,1.61,2.14,3.27s2.8,2.5,3.34,2.09l.13-.11,3.55,3.48ZM11.33,9.74l-.45.43L7.33,6.7l.33-.32a1.26,1.26,0,0,1,1.73,0l1.95,1.91a1,1,0,0,1,0,1.45"/></g></g></svg>