<?xml version="1.0" encoding="utf-8"?>
<!-- Generator: Adobe Illustrator 24.3.0, SVG Export Plug-In . SVG Version: 6.00 Build 0)  -->
<svg version="1.1" id="Layer_1" xmlns="http://www.w3.org/2000/svg" xmlns:xlink="http://www.w3.org/1999/xlink" x="0px" y="0px"
	 viewBox="0 0 50 50" style="enable-background:new 0 0 50 50;" xml:space="preserve">
<style type="text/css">
	.st0{fill:#FFFFFF;}
	.st1{fill:#2B66B1;}
	.st2{fill:#FCF9F6;}
</style>
<g>
	<path class="st0" d="M23.93-241.98l-9.78-3c-0.31-0.09-0.48-0.42-0.38-0.72l7.74-25.2c0.09-0.3,0.42-0.48,0.72-0.38l9.78,3
		c0.3,0.09,0.47,0.42,0.38,0.72l-7.74,25.2C24.56-242.06,24.24-241.89,23.93-241.98"/>
	<path class="st0" d="M34.13-253.46c-0.71-0.06-1.46-0.54-1.89-1.58c-1.18-2.87-1.01-11.6-1-11.97c0-0.1,0.07-0.19,0.17-0.21
		c0.1-0.02,0.2,0.02,0.25,0.12c0.18,0.35,4.43,8.54,4.59,11.1c0.09,1.46-0.71,2.31-1.55,2.5C34.52-253.46,34.33-253.44,34.13-253.46
		 M31.68-266.08c-0.01,2.36,0.05,8.62,0.98,10.87c0.48,1.16,1.34,1.41,1.94,1.28c0.66-0.15,1.28-0.84,1.21-2.04
		C35.67-257.98,32.78-263.91,31.68-266.08"/>
	<path class="st0" d="M32.01-269.54l-9.08-2.79l0.93-3.04c0.35-1.14,1.56-1.78,2.69-1.43l4.93,1.52c1.15,0.35,1.8,1.57,1.44,2.72
		L32.01-269.54z"/>
</g>
<g>
	<path class="st0" d="M3.09-147.8l28.34-26.94c-0.31-0.06-0.6-0.19-0.86-0.39c-0.75-0.59-0.98-1.62-0.69-2.64
		c-0.73,0.41-1.53,0.48-2.2,0.21l2.36-2.92c0.26,0.01,0.53-0.07,0.73-0.24c0.02,0,0.05-0.02,0.11-0.1l0.02-0.02c0,0,0,0,0,0
		c0,0,0,0,0,0l2.42-3.07c0.71-0.91,1-2.03,0.87-3.09c-0.13-1.06-0.66-2.09-1.57-2.8c-0.91-0.71-2.03-1-3.09-0.87
		c-1.06,0.13-2.09,0.66-2.8,1.57c-0.51,0.65-0.81,1.42-0.88,2.19c-0.05,0.57,0.36,1.07,0.92,1.12c0.57,0.05,1.07-0.36,1.12-0.93
		c0.04-0.4,0.18-0.78,0.45-1.12c0.37-0.47,0.88-0.73,1.43-0.8c0.55-0.06,1.11,0.08,1.58,0.44c0.47,0.37,0.73,0.88,0.8,1.43
		c0.06,0.55-0.08,1.11-0.44,1.58l-2.39,3.03c-0.01,0.01-0.02,0.01-0.02,0.02c-0.01,0.01-0.02,0.03-0.03,0.04l-0.01,0.01
		c-0.05,0.06-0.07,0.1-0.07,0.12c-0.12,0.23-0.14,0.5-0.07,0.74l-2.34,2.9c-0.35-0.6-0.43-1.35-0.2-2.11
		c-0.93,0.49-1.99,0.48-2.72-0.13c-0.25-0.21-0.44-0.47-0.56-0.75L2.86-147.99l-0.75,0.9l0.04,0.04l0,0l0.08,0.06l0.08,0.07l0,0
		l0.04,0.04L3.09-147.8z"/>
</g>
<g>
	<rect x="-63.11" y="-71.9" class="st0" width="5.46" height="2.55"/>
	<rect x="-28.02" y="-71.9" class="st0" width="5.46" height="2.55"/>
	
		<rect x="-60.76" y="-63.12" transform="matrix(0.8661 -0.4998 0.4998 0.8661 23.1427 -37.2837)" class="st0" width="5.46" height="2.55"/>
	
		<rect x="-30.37" y="-80.67" transform="matrix(0.8659 -0.5002 0.5002 0.8659 36.0034 -24.4691)" class="st0" width="5.46" height="2.55"/>
	
		<rect x="-54.34" y="-56.71" transform="matrix(0.5002 -0.8659 0.8659 0.5002 22.2052 -72.3959)" class="st0" width="5.46" height="2.55"/>
	
		<rect x="-36.79" y="-87.09" transform="matrix(0.4999 -0.8661 0.8661 0.4999 57.2914 -72.4247)" class="st0" width="5.46" height="2.55"/>
	<rect x="-44.11" y="-55.81" class="st0" width="2.55" height="5.46"/>
	<rect x="-44.11" y="-90.91" class="st0" width="2.55" height="5.46"/>
	
		<rect x="-35.34" y="-58.16" transform="matrix(0.8662 -0.4997 0.4997 0.8662 23.1397 -24.4381)" class="st0" width="2.55" height="5.46"/>
	
		<rect x="-52.88" y="-88.55" transform="matrix(0.8659 -0.5001 0.5001 0.8659 36.005 -37.3169)" class="st0" width="2.55" height="5.46"/>
	
		<rect x="-28.92" y="-64.59" transform="matrix(0.5002 -0.8659 0.8659 0.5002 39.7453 -54.8534)" class="st0" width="2.55" height="5.46"/>
	
		<rect x="-59.31" y="-82.13" transform="matrix(0.5001 -0.866 0.866 0.5001 39.745 -89.9466)" class="st0" width="2.55" height="5.46"/>
	<path class="st0" d="M-42.84-82.99c-6.83,0-12.36,5.54-12.36,12.36s5.53,12.36,12.36,12.36c6.83,0,12.36-5.53,12.36-12.36
		S-36.01-82.99-42.84-82.99"/>
	<g>
		<path class="st1" d="M-43.38-74.23c-0.05,0.44-0.07,0.76-0.07,1.48v3.13c0,1.07-0.31,1.94-0.91,2.53
			c-0.29,0.3-0.62,0.51-0.97,0.65c-0.57,0.21-1.18,0.32-1.82,0.32c-2.44,0-3.7-1.2-3.7-3.53v-3.11c0-0.71-0.02-1.09-0.07-1.48h2.38
			c-0.06,0.35-0.07,0.74-0.07,1.48v3.15c0,1.1,0.45,1.59,1.46,1.59c1.02,0,1.48-0.49,1.48-1.6v-3.14c0-0.75-0.02-1.03-0.07-1.48
			H-43.38z"/>
		<path class="st1" d="M-40.14-66.31c-0.05-0.26-0.14-0.58-0.3-1.05l-1.96-5.72c-0.21-0.62-0.3-0.85-0.43-1.15h2.6
			c0.05,0.34,0.11,0.69,0.2,1.02l1.35,4.97l1.35-4.97c0.08-0.32,0.16-0.67,0.2-1.02h2.6c-0.12,0.28-0.2,0.5-0.43,1.15l-1.96,5.72
			c-0.17,0.48-0.25,0.8-0.3,1.05H-40.14z"/>
	</g>
</g>
<g>
	<path class="st0" d="M-146.56,105.66c-0.92-2.54-2.81-5.39-5.72-7.71c-2.82-2.25-6.61-3.97-11.35-4.33v-1.54h-0.97v1.54
		c-4.74,0.37-8.54,2.09-11.35,4.33c-2.91,2.32-4.79,5.17-5.71,7.71l-0.38,1.04l1.12-0.04c0.05,0,0.66,0.01,1.59,0.28
		c0.96,0.28,2.25,0.82,3.66,1.92l0.27,0.21l0.34-0.05c0.29-0.05,0.78-0.08,1.36-0.08c1.2,0,2.84,0.13,4.51,0.43
		c1.51,0.27,3.04,0.69,4.31,1.26v5.17c-0.24,0.17-0.41,0.45-0.41,0.77v3.48c0,0.55-0.22,1.04-0.59,1.4
		c-0.37,0.36-0.87,0.58-1.43,0.58c-0.57,0-1.07-0.22-1.44-0.58c-0.37-0.36-0.59-0.85-0.59-1.4c0-0.44,0.15-0.85,0.4-1.18
		c0.32-0.42,0.23-1.01-0.2-1.32c-0.43-0.31-1.03-0.22-1.35,0.19c-0.49,0.64-0.78,1.44-0.78,2.3c0,1.06,0.45,2.03,1.16,2.73
		c0.71,0.7,1.71,1.13,2.8,1.13c1.09,0,2.09-0.43,2.8-1.13c0.72-0.7,1.16-1.67,1.16-2.73v-3.48c0-0.2-0.07-0.38-0.17-0.54v-5.33
		c0.45-0.26,1.04-0.5,1.72-0.71c1.14-0.35,2.5-0.62,3.81-0.79c1.32-0.17,2.59-0.25,3.55-0.25c0.28,0,0.54,0.01,0.76,0.02
		c0.22,0.01,0.4,0.03,0.53,0.05l0.34,0.05l0.27-0.21c1.41-1.09,2.7-1.64,3.66-1.92c0.89-0.26,1.49-0.28,1.58-0.28l1.13,0.06
		L-146.56,105.66z M-175.14,106.7c-0.08,0.19-0.15,0.35-0.21,0.51c-1.34-0.93-2.58-1.44-3.55-1.72c-0.35-0.1-0.67-0.17-0.95-0.22
		c0.92-2.05,2.54-4.3,4.88-6.16c2.2-1.75,5.02-3.15,8.51-3.75c-0.97,0.7-1.87,1.49-2.68,2.33c-2.04,2.09-3.62,4.48-4.71,6.45
		C-174.41,105.13-174.83,106.01-175.14,106.7 M-164.7,109.06c-1.33-0.54-2.79-0.92-4.22-1.18c-1.78-0.32-3.49-0.46-4.79-0.46
		c-0.24,0-0.47,0.01-0.68,0.02c0.19-0.46,0.45-1.04,0.79-1.71c0.81-1.61,2.04-3.7,3.66-5.7c1.45-1.79,3.22-3.49,5.26-4.7V109.06z
		 M-153.6,107.46c-0.26-0.01-0.54-0.02-0.85-0.02c-1.4,0-3.29,0.15-5.15,0.48c-0.93,0.16-1.85,0.37-2.69,0.63
		c-0.51,0.16-0.99,0.34-1.44,0.54V95.16c1.64,0.86,3.12,2.05,4.41,3.38c1.96,2.01,3.5,4.33,4.56,6.25c0.53,0.96,0.94,1.82,1.23,2.48
		c0.03,0.07,0.06,0.14,0.09,0.2C-153.49,107.46-153.54,107.46-153.6,107.46 M-149.33,105.5c-0.9,0.26-2.03,0.72-3.25,1.52
		c-0.18-0.43-0.42-0.94-0.7-1.51c-0.83-1.66-2.1-3.8-3.77-5.87c-1.25-1.54-2.73-3.03-4.44-4.23c3.37,0.62,6.1,2,8.24,3.71
		c2.33,1.86,3.95,4.11,4.88,6.16C-148.66,105.32-148.97,105.4-149.33,105.5"/>
</g>
<g>
	<path class="st0" d="M-248.2,44.7c-1.89,0.01-3.52,1.34-4.32,3.29c-0.74-1.77-2.19-3.02-3.88-3.21l-0.94,0
		c-1.69,0.21-3.12,1.46-3.85,3.24c-0.81-1.94-2.45-3.26-4.35-3.25c-0.65,0-1.26,0.16-1.82,0.45l9.85-26.63l-0.01-2.34l1.06,0
		l0.01,2.34l10.07,26.55C-246.94,44.85-247.55,44.7-248.2,44.7"/>
	<path class="st0" d="M-260.96,10.17h1.75c0.11,0,0.2,0.08,0.22,0.19c0.07,0.47,0.14,0.72,0.5,1.07c0.4,0.39,0.92,0.6,1.47,0.6
		c1.36,0,2.27-1.22,2.27-3.03c0-2.17-1.24-3.14-2.46-3.14c-0.55,0-1.52,0.19-1.79,1.48c-0.02,0.1-0.11,0.18-0.22,0.18h-1.75
		c-0.06,0-0.12-0.03-0.17-0.07c-0.04-0.05-0.06-0.11-0.06-0.17c0.17-1.65,1.48-3.31,4.02-3.31c3.41,0,4.62,2.73,4.62,5.07
		c0,2.26-1.18,4.9-4.5,4.9c-2.6,0-3.95-1.76-4.14-3.5c-0.01-0.06,0.01-0.13,0.06-0.17C-261.08,10.2-261.02,10.17-260.96,10.17"/>
	<rect x="-257.84" y="12.32" class="st0" width="1.96" height="10.38"/>
</g>
<g>
	<path class="st0" d="M-286.78,211.61l3.89-6.84l3.18,1.84l-4.33-7.5l-8.58,0.02l3.06,1.81c0,0-1.82,3.06-2.23,3.77
		c-0.65,1.13-0.98,2.79-0.26,3.94c0.11,0.18,2.18,3.87,3.85,6.76C-288.16,214.12-287.51,212.92-286.78,211.61L-286.78,211.61z"/>
	<path class="st0" d="M-287.08,217.35c0.09,0.16,0.19,0.32,0.27,0.48c0.43,0.74,1.45,1.7,5.43,1.63c0.87-0.02,4.33,0.01,5.36,0.02
		l0.05-7.79l-10.13-0.07C-287.24,213.66-288.21,215.39-287.08,217.35"/>
	<path class="st0" d="M-278.6,185.95h-0.55c-0.85,0-2.2,0.4-4.13,3.89c-0.42,0.76-2.17,3.75-2.7,4.64l6.72,3.94l5.13-8.74
		C-275.32,187.66-276.34,185.95-278.6,185.95"/>
	<path class="st0" d="M-264.32,197.71l4.27-7.44l-3.09,1.75c0,0-1.75-3.11-2.15-3.81c-0.65-1.13-1.92-2.24-3.28-2.2
		c-0.21,0.01-4.44-0.05-7.78-0.05c1.09,0.67,1.8,1.84,2.57,3.13l0-0.01l3.98,6.79l-3.18,1.84H-264.32z"/>
	<path class="st0" d="M-260.77,211.65l-7.87,0.06v-3.67l-4.33,7.5l4.3,7.42l0.04-3.55c0,0,3.57,0.04,4.38,0.04
		c1.31-0.01,2.9-0.54,3.54-1.74c0.1-0.18,2.26-3.82,3.93-6.71C-257.91,211.6-259.27,211.63-260.77,211.65L-260.77,211.65z"/>
	<path class="st0" d="M-256.68,203.05c-0.45-0.75-2.16-3.75-2.67-4.65l-6.77,3.85l5.01,8.82c2.34-0.03,4.32-0.05,5.46-2.01
		c0.09-0.16,0.18-0.32,0.28-0.48C-254.95,207.84-254.63,206.46-256.68,203.05"/>
</g>
<g>
	<path class="st2" d="M37.23-94.83c-1.21-3.33-3.69-7.08-7.51-10.13c-2.82-2.24-8.95-5.1-14.55-5.78v-1.83h-1.72v1.85
		C7.9-110,1.86-107.18-0.93-104.96c-3.82,3.04-6.3,6.8-7.51,10.13l-0.5,1.39c0,0,0.79-0.03,1.2,0.08c0.65,0.18,1.44,0.86,1.75,1.5
		c0.83-2.55,2.39-5.7,4.93-8.87c4.92-6.12,9.07-8.01,14.52-9.77v0.01c-4.5,1.65-9.66,6.02-11.96,8.77c-2.41,2.88-5,7.8-5.75,10.36
		c1.36-0.39,1.59-0.36,2.7,0.03c1.11,0.39,2.03,1.83,2.03,1.83c0.43-2.02,1.24-7.86,5.7-13.92c1.24-1.69,3.48-4.95,7.41-6.96h0.22
		c-2.96,2.05-6.01,5.41-8.61,12.16c-1.33,3.46-2.4,7.33-2.59,9.07c1.1-0.18,3.9-0.66,5.67,1.11c-0.05-2.28,0.27-8.65,2.46-15.28
		c1.06-3.22,1.8-5.04,3.42-7.07h0.13l0,0.26c-0.6,1.82-1.63,5.26-2.01,7.06c-1.53,7.4-1.55,13.7-1.51,15.06
		c0.92-0.05,1.99-0.35,2.65-0.34v5.7c-0.32,0.22-0.53,0.59-0.53,1v4.58c0,0.72-0.3,1.36-0.78,1.84c-0.49,0.47-1.14,0.76-1.89,0.76
		c-0.74,0-1.4-0.29-1.89-0.76c-0.48-0.47-0.78-1.12-0.78-1.84c0-0.58,0.19-1.11,0.52-1.55c0.42-0.55,0.3-1.32-0.26-1.73
		c-0.56-0.41-1.36-0.29-1.78,0.26C5.38-79.22,5-78.16,5-77.03c0,1.4,0.58,2.67,1.53,3.58c0.94,0.92,2.25,1.49,3.68,1.48
		c1.43,0,2.74-0.57,3.68-1.48c0.94-0.91,1.53-2.19,1.53-3.58v-4.58c0-0.26-0.09-0.5-0.23-0.7v-5.99c0.63-0.08,1.83,0.28,2.85,0.33
		c0.04-1.36,0.03-7.67-1.51-15.06c-0.37-1.8-1.4-5.24-2.01-7.06l0-0.26h0.13c1.61,2.03,2.36,3.85,3.42,7.07
		c2.19,6.62,2.5,13,2.46,15.28c1.77-1.77,4.57-1.29,5.67-1.11c-0.19-1.74-1.25-5.61-2.59-9.07c-2.6-6.75-5.65-10.11-8.61-12.16h0.18
		v-0.02c3.96,2.01,6.2,5.28,7.45,6.98c4.45,6.06,5.26,11.9,5.7,13.92c0,0,0.92-1.44,2.03-1.83c1.11-0.39,1.34-0.43,2.7-0.03
		c-0.75-2.57-3.34-7.49-5.75-10.36c-2.33-2.78-7.57-7.22-12.1-8.83c5.52,1.77,9.69,3.64,14.65,9.81c2.55,3.17,4.1,6.32,4.93,8.87
		c0.31-0.64,1.09-1.32,1.75-1.5c0.4-0.11,1.2-0.08,1.2-0.08L37.23-94.83z"/>
</g>
<path class="st2" d="M45.07,22.88c-0.85-0.85-2.01-1.41-3.29-1.5c-0.8-3.74-2.79-7.04-5.57-9.46c-3.04-2.64-7.02-4.25-11.36-4.25
	c-4.34,0-8.31,1.6-11.35,4.24c-2.79,2.42-4.79,5.74-5.58,9.5c-1.16,0.15-2.21,0.68-2.99,1.47c-0.94,0.93-1.52,2.23-1.52,3.66
	c0,1.43,0.58,2.73,1.52,3.66c0.93,0.93,2.24,1.52,3.66,1.52c0.1,0,0.2-0.01,0.29-0.02c1.25,2.97,3.29,5.52,5.86,7.38
	c2.84,2.05,6.34,3.25,10.11,3.25c3.78,0,7.29-1.22,10.14-3.28c2.57-1.86,4.59-4.4,5.83-7.36c0.19,0.02,0.38,0.04,0.58,0.04
	c1.43,0,2.73-0.58,3.66-1.52c0.94-0.93,1.52-2.24,1.52-3.66C46.59,25.11,46.01,23.81,45.07,22.88 M31.91,24.76
	c0,1.34-1.08,2.42-2.42,2.42c-1.33,0-2.42-1.08-2.42-2.42s1.08-2.42,2.42-2.42C30.83,22.34,31.91,23.42,31.91,24.76 M22.84,10.23
	c0.74-0.1,1.5-0.16,2.27-0.16c1.04,0,2.06,0.1,3.06,0.27c0.1,0.12,0.21,0.25,0.31,0.41c0.45,0.68,0.9,1.75,0.9,3.44
	c0,1.28-0.27,2.91-1.03,4.97c-2.39-1.92-3.76-3.69-4.53-5.15c-0.84-1.59-0.99-2.82-0.99-3.53C22.83,10.37,22.84,10.3,22.84,10.23
	 M21.13,10.53c0.01,0.96,0.23,2.46,1.19,4.26c0.43,0.81,1.02,1.69,1.78,2.6c-0.77-0.31-1.54-0.6-2.26-0.91
	c-1.23-0.52-2.32-1.1-3.05-1.87c-0.37-0.39-0.66-0.82-0.87-1.35c-0.17-0.44-0.28-0.94-0.31-1.54
	C18.73,11.21,19.91,10.81,21.13,10.53 M20.51,22.34c1.34,0,2.42,1.08,2.42,2.42s-1.08,2.42-2.42,2.42c-1.33,0-2.42-1.08-2.42-2.42
	S19.17,22.34,20.51,22.34 M32.92,31.23c-1.8,2.5-4.73,4.05-7.92,4.05c-3.19,0-6.11-1.55-7.92-4.05c-0.37-0.52-0.26-1.24,0.26-1.61
	c0.52-0.37,1.24-0.26,1.61,0.26c1.38,1.91,3.62,3.1,6.04,3.09c2.43,0,4.67-1.19,6.04-3.09c0.37-0.52,1.1-0.63,1.61-0.26
	C33.17,29.99,33.29,30.71,32.92,31.23"/>
</svg>
