<svg xmlns="http://www.w3.org/2000/svg" viewBox="0 0 110.29 50"><defs><style>.cls-1{fill:#211815;}.cls-2{fill:#c52d27;}.cls-3{fill:#fff;}</style></defs><g id="Layer_2" data-name="Layer 2"><g id="Layer_1-2" data-name="Layer 1"><path class="cls-1" d="M55.66,13.3a.17.17,0,0,0,0,.12v5.85a.07.07,0,0,0,.12,0L67,8.11A.16.16,0,0,0,67,8V2.14a.07.07,0,0,0-.11-.05Z"/><path class="cls-1" d="M98.9,18.65l4.68,4.68v-16a.16.16,0,0,0,0-.12L99,2.66a.07.07,0,0,0-.12,0V18.53a.17.17,0,0,0,.05.12"/><path class="cls-1" d="M105.56,22.6V9.41a.07.07,0,0,1,.11-.05l4.57,4.57a.16.16,0,0,1,.05.11V30l-6.76-6.75c.68.67,2,.67,2-.68"/><path d="M99.48,21.32v15.2c0,1-.34,1.35-1.35,1.35s-1.35-.34-1.35-1.35V4.09a1.79,1.79,0,0,0-2-2H91.44a.07.07,0,0,0-.07.07v8h-2c-4.06,0-5.41,1.36-5.41,5.41V36.47a2,2,0,0,1-1.8,2v.08h1.8c4,0,5.41-1.35,5.41-5.4V12.37c0-1.68,1.38-1.93,2-2.07V33.16c0,4,1.35,5.38,5.4,5.38h2.71c8.1,0,10.81-3,10.81-6.41Z"/><path class="cls-1" d="M78.43,2H69.09a.07.07,0,0,0-.06.07V19.6H67V10.31a.07.07,0,0,0-.11-.05L61.65,15.5a.17.17,0,0,0,0,.12v4h-6a.07.07,0,0,0-.07.07v.54a.07.07,0,0,0,.07.07h1.92c-2.47.46-3.35,2-3.35,5.24V36.34a1.9,1.9,0,0,1-1.8,2.18v.08h1.8c4,0,5.41-1.35,5.41-5.41V21.46c0-.63.13-1,.47-1.18H61.6V36.49c0,1.36.67,2,2.7,2,1.49,0,2.25,1.37,2.55,2.7H67V20.28h.78a1.35,1.35,0,0,1,1.25.85V36.5a1.78,1.78,0,0,0,2,2h6.7c1.52,0,2.28,1.34,2.57,2.7h.15V4.07a1.8,1.8,0,0,0-2-2m-4,35.8a.73.73,0,0,1-.68-.67V2.71h1.31a.73.73,0,0,1,.67.68V37.84Z"/><path class="cls-1" d="M56.26,47.7H56l-1-3L55,44.35A1.28,1.28,0,0,0,54.8,44a.69.69,0,0,0-.53-.3v-.13h2v.13a.73.73,0,0,0-.39.1.31.31,0,0,0-.18.3,1.58,1.58,0,0,0,.07.4s0,.16.13.39l.54,1.71,1.05-3h.12l1.18,3,.57-1.88a2.26,2.26,0,0,0,.08-.3.88.88,0,0,0,0-.27.35.35,0,0,0-.15-.31,1.25,1.25,0,0,0-.4-.13v-.13h1.45v.13a.41.41,0,0,0-.18.05,1.07,1.07,0,0,0-.16.09,1,1,0,0,0-.24.38l-.15.43-1,3h-.24l-1.14-2.89Z"/><path class="cls-1" d="M65.45,44.75a1.43,1.43,0,0,0-.12-.71.74.74,0,0,0-.69-.31,1.28,1.28,0,0,0-.7.13.37.37,0,0,0-.16.34.46.46,0,0,1-.1.29.32.32,0,0,1-.27.12.32.32,0,0,1-.24-.09.31.31,0,0,1-.11-.25c0-.29.23-.51.67-.65a3.2,3.2,0,0,1,1-.15,1.86,1.86,0,0,1,1.12.26,1.34,1.34,0,0,1,.36,1.06v1.53a2.83,2.83,0,0,0,.06.67c0,.16.13.24.26.24a.33.33,0,0,0,.26-.14.92.92,0,0,0,.12-.16L67,47a1.57,1.57,0,0,1-.29.45.6.6,0,0,1-.47.19.75.75,0,0,1-.5-.18.91.91,0,0,1-.29-.48,3.22,3.22,0,0,1-.74.48,1.78,1.78,0,0,1-.78.18,1,1,0,0,1-.67-.22.69.69,0,0,1-.28-.59,1.06,1.06,0,0,1,.51-.87,9.74,9.74,0,0,1,.95-.5l.91-.45a.19.19,0,0,0,.05-.09.72.72,0,0,0,0-.17m-1.59,1.86a.75.75,0,0,0,.15.47.54.54,0,0,0,.43.2,1.08,1.08,0,0,0,.51-.16,2.7,2.7,0,0,0,.5-.37v-1.5a8.91,8.91,0,0,0-1.23.67.91.91,0,0,0-.36.69"/><path class="cls-1" d="M74.07,48.46a1.34,1.34,0,0,1-.65,1.21A2.74,2.74,0,0,1,72,50a2.83,2.83,0,0,1-1.24-.25,1,1,0,0,1-.68-1,.81.81,0,0,1,.2-.53.62.62,0,0,1,.48-.23.54.54,0,0,1,.21,0,.66.66,0,0,1,.17.12.51.51,0,0,0-.34.22.72.72,0,0,0-.13.42.75.75,0,0,0,.48.73,2.24,2.24,0,0,0,1,.18,1.68,1.68,0,0,0,.91-.23.8.8,0,0,0,.42-.74.77.77,0,0,0-.57-.79,3.81,3.81,0,0,0-1.06-.1,3.3,3.3,0,0,1-.94-.1.72.72,0,0,1-.49-.74.67.67,0,0,1,.24-.52,1.07,1.07,0,0,1,.56-.26,1.51,1.51,0,0,1-.69-.51,1.24,1.24,0,0,1-.29-.79,1.34,1.34,0,0,1,.5-1.1,1.94,1.94,0,0,1,1.22-.39,2.08,2.08,0,0,1,.63.09,1.4,1.4,0,0,1,.53.32,1.8,1.8,0,0,1,.41-.27,1.06,1.06,0,0,1,.47-.12.65.65,0,0,1,.38.1.31.31,0,0,1,.16.3.32.32,0,0,1-.08.21.29.29,0,0,1-.22.09.69.69,0,0,1-.36-.21.3.3,0,0,0-.23-.11.49.49,0,0,0-.19.05l-.19.12a1.32,1.32,0,0,1,.33.9,1.29,1.29,0,0,1-.52,1.14,2.11,2.11,0,0,1-1.23.32,2.83,2.83,0,0,0-.58,0c-.27.06-.4.18-.4.34s.09.22.28.27a1.51,1.51,0,0,0,.43,0l.61,0a2.42,2.42,0,0,1,1.55.36,1.25,1.25,0,0,1,.36,1m-2.19-4.73a.75.75,0,0,0-.71.42,1.54,1.54,0,0,0-.18.79,1.43,1.43,0,0,0,.19.78.74.74,0,0,0,.68.41.82.82,0,0,0,.74-.39,1.68,1.68,0,0,0,0-1.59.78.78,0,0,0-.72-.42"/><path class="cls-1" d="M79.63,47.65A2.15,2.15,0,0,1,78.09,47a2,2,0,0,1-.65-1.52,1.85,1.85,0,0,1,.67-1.45,2.23,2.23,0,0,1,1.52-.59,2.21,2.21,0,0,1,1.54.6,1.93,1.93,0,0,1,.67,1.48,2,2,0,0,1-.64,1.5,2.22,2.22,0,0,1-1.57.6m.05-.27a1,1,0,0,0,1-.6,3.09,3.09,0,0,0,0-2.41,1.14,1.14,0,0,0-1.07-.63,1.06,1.06,0,0,0-1,.63,2.53,2.53,0,0,0-.24,1.18,2.47,2.47,0,0,0,.25,1.21,1.14,1.14,0,0,0,1.07.62"/><path class="cls-1" d="M94.61,47.65A2.18,2.18,0,0,1,93.06,47a2,2,0,0,1-.64-1.52,1.87,1.87,0,0,1,.66-1.45,2.24,2.24,0,0,1,1.53-.59,2.21,2.21,0,0,1,1.54.6,1.92,1.92,0,0,1,.66,1.48,1.94,1.94,0,0,1-.64,1.5,2.17,2.17,0,0,1-1.56.6m0-.27a1,1,0,0,0,1-.6,2.38,2.38,0,0,0,.25-1.18,2.5,2.5,0,0,0-.26-1.23,1.12,1.12,0,0,0-1.06-.63,1,1,0,0,0-1,.63,2.4,2.4,0,0,0-.25,1.18,2.47,2.47,0,0,0,.26,1.21,1.13,1.13,0,0,0,1.07.62"/><path class="cls-1" d="M87.08,44.94a6,6,0,0,0,.41-.45,1.1,1.1,0,0,0,.29-.49.19.19,0,0,0-.12-.17.86.86,0,0,0-.37-.06v-.15h1.58v.15a.93.93,0,0,0-.52.12,4.1,4.1,0,0,0-.38.4l-.83,1L88.88,47l.29.27a.82.82,0,0,0,.34.15v.14H88.39L86.65,45.7l-.18.18v.88a.73.73,0,0,0,.12.48q.12.15.54.15v.15H85.06v-.15a.65.65,0,0,0,.54-.17.84.84,0,0,0,.1-.51V42.86c0-.22,0-.47,0-.61a.82.82,0,0,0-.09-.36.45.45,0,0,0-.26-.22.73.73,0,0,0-.35,0v-.14l1.47-.29V45.6Z"/><path class="cls-1" d="M100.34,44.16a.28.28,0,0,0-.2-.21,1.07,1.07,0,0,0-.42-.05v-.15c.18,0,1-.22,1.21-.28a2,2,0,0,1,.09.43c0,.17,0,.34,0,.5a1.81,1.81,0,0,1,.55-.69,1.32,1.32,0,0,1,.79-.24.84.84,0,0,1,.45.12.34.34,0,0,1,.2.34.35.35,0,0,1-.32.4.4.4,0,0,1-.33-.24c-.1-.16-.21-.24-.32-.24a.73.73,0,0,0-.41.13,1.08,1.08,0,0,0-.31.33,1.44,1.44,0,0,0-.17.53,6,6,0,0,0,0,.67v1.23a.87.87,0,0,0,.1.49.8.8,0,0,0,.6.16v.14H99.72v-.14a.69.69,0,0,0,.55-.17.88.88,0,0,0,.09-.5V44.54a2.18,2.18,0,0,0,0-.38"/><path class="cls-1" d="M108.05,47.64A2.12,2.12,0,0,1,106.5,47a2,2,0,0,1-.64-1.52,1.85,1.85,0,0,1,.66-1.44,2.26,2.26,0,0,1,3.06,0,1.89,1.89,0,0,1,.67,1.47,2,2,0,0,1-.64,1.51,2.24,2.24,0,0,1-1.56.59m0-.21a1,1,0,0,0,1-.6,3.36,3.36,0,0,0,0-2.52,1.13,1.13,0,0,0-1.07-.63,1.06,1.06,0,0,0-1,.63,2.75,2.75,0,0,0-.24,1.23,2.71,2.71,0,0,0,.25,1.27,1.14,1.14,0,0,0,1.07.62"/><path class="cls-2" d="M.33,26.36l-.09-.12a.11.11,0,0,0,0-.14.62.62,0,0,1,0-.27.61.61,0,0,0,0-.13.27.27,0,0,1,0-.15.57.57,0,0,0,0-.15c0-.06,0-.11,0-.16a2,2,0,0,1,0-.59.51.51,0,0,1,0-.09l-.08,0c0-.08,0-.15,0-.19s0-.12,0-.18A.25.25,0,0,1,0,24s0-.1,0-.18l0-.07,0-.09c-.06-.07,0-.15,0-.23l.07-.07L0,23.3l.08-.14a1.47,1.47,0,0,1,0-.47l.08,0,0-.07a.08.08,0,0,0,0-.05,4.21,4.21,0,0,0,0-.5.24.24,0,0,1,0-.14,2.91,2.91,0,0,0,.1-.28l0,0a2.21,2.21,0,0,0,.07-.3.31.31,0,0,1,0-.13.49.49,0,0,0,.06-.34l.07,0v-.12a.46.46,0,0,1,.07-.07c-.07,0,0-.06,0-.09a.34.34,0,0,1,0-.1c0-.09.12-.16.09-.29l.06-.05c0-.06,0-.11,0-.18l.1-.08a.08.08,0,0,0,0,0l.1-.08v-.17H1a2.42,2.42,0,0,1,.12-.35s0,0,.06,0h0l0,0h0l0,0,0-.06c0-.1.17-.17.2-.29v-.16l.14-.14c0-.08,0-.12.06-.18a.21.21,0,0,1,.17-.12l-.06,0a.32.32,0,0,0,0-.08L1.71,18v-.08l.06-.05s.06,0,.07-.06A.87.87,0,0,1,2,17.46s.06-.09.09-.13l.11-.11c.06-.15.06-.15.14-.2s0-.12.11-.16.08-.09.13-.14l.06,0,0-.06,0,0c0-.07.07,0,.06-.1a.14.14,0,0,1,.09-.08c.07,0,.05-.07.08-.1a.71.71,0,0,1,.25-.2c0-.05,0-.14.1-.14s.17-.2.2-.33a.23.23,0,0,1,.07-.15s0-.06,0-.11l.1-.08h0s0,0,0,.07h0a.08.08,0,0,0,0-.07l0-.13.09-.06-.06-.13s.08-.07,0-.13,0-.12,0-.17l.06,0a.54.54,0,0,1,0-.1v-.41s0-.07,0-.1a.44.44,0,0,0,0-.17.35.35,0,0,1,0-.28c0-.1,0-.19,0-.29a.59.59,0,0,1,0-.17,1.28,1.28,0,0,1,0-.17l0,0c0-.07,0-.14,0-.22l.12,0-.1-.06A.29.29,0,0,0,4,12.42a1.47,1.47,0,0,1,.1-.13l.12,0-.14,0c0-.12,0-.24.08-.38l.08-.16,0,0v0a1,1,0,0,0,.1-.21c0-.08.08-.14.07-.22a.15.15,0,0,1,0-.1.32.32,0,0,0,.07-.25l.1-.06v-.1l.07,0v-.11l.1-.07-.07,0a1.26,1.26,0,0,0,.13-.26c0-.08.08-.17.12-.26H5s0,0,0,0,0-.06,0-.09,0-.08.07-.11l0,0,.17-.18a.35.35,0,0,0,0-.06l.13-.26c.05-.08.12-.15.18-.24l.08,0,0-.1a.43.43,0,0,0,.14-.21s.06,0,.1-.07V8.43a.3.3,0,0,0,.12-.13A.45.45,0,0,1,6,8.18a3.54,3.54,0,0,0,.34-.45.36.36,0,0,1,.12-.08s0-.09.08-.09.06,0,0-.12.12-.12.2-.17S6.9,7.15,7,7.1a1,1,0,0,0,.15-.2l.12,0,0-.11s.07,0,.08-.06a.19.19,0,0,1,.07-.08.26.26,0,0,1,.15,0s0,0,0,0l0,0h0s0-.05,0-.07a.45.45,0,0,0,.16-.12l.17-.13.07,0,0-.1.25-.21h0l0,0h0l0,0,.08-.13h.08l.15-.17h.14c0-.07,0-.13.11-.14s.11-.07.16-.1L9,5.45c.08-.06.14-.16.26-.16s0,0,.06-.06.11-.11.21-.11.05,0,.08-.06h.11L9.7,5h.13l0,0h0l0,0v0L10,4.89l.08.08s0-.09,0-.14l.35-.17h.17a.25.25,0,0,1,0-.07h.19l-.1,0c.15,0,.26-.1.4-.13a1.89,1.89,0,0,0,.25-.11,2.25,2.25,0,0,1,.44-.14l.24,0c.06,0,.11-.1.19,0L12.28,4c.05,0,.1,0,.15,0a.43.43,0,0,1,0-.07h.12l.07-.06.06,0a.2.2,0,0,0,0-.08h.07c.07,0,.14,0,.21,0s.12,0,.19,0,.12,0,.2,0,0-.07,0-.11l0,0,.21,0,0,0,.19,0,.1,0h.07a.83.83,0,0,0,.22,0,.64.64,0,0,1,.2,0h.23l.07,0a1.24,1.24,0,0,1,.45-.09l.06-.07.16-.07a2.1,2.1,0,0,0,.26-.13s.09,0,.1-.09.06,0,.1,0A2.43,2.43,0,0,1,16.22,3a.32.32,0,0,0,.1-.1.47.47,0,0,1,.14-.14,1.31,1.31,0,0,0,.21-.2.07.07,0,0,1,.08,0s0,0,0,0h.06s0,0,0,0h-.06l.12-.14s.1,0,.09-.09.12-.09.18-.14h.1L17.4,2a.23.23,0,0,1,.23-.06s0,0,0,0h-.05s0,0,0,0,0-.08,0-.1.21-.16.35-.18.12-.06.18-.08a.42.42,0,0,0,.16-.11.36.36,0,0,1,.23-.11l0,0,.05,0-.07,0,.1-.06h.23l-.11,0A.61.61,0,0,1,19,1.09L19.17,1c.17-.08.35-.13.52-.21s.23-.05.32-.13h.14s0,0,0-.06c.18,0,.18,0,.25,0,0-.13.19-.08.26-.17A.53.53,0,0,0,21,.4a.17.17,0,0,1,.18,0l.07-.08c.21,0,.37-.12.55-.07s.16-.1.27-.06l0,0c.09,0,.09,0,.13-.09h.22s0,0,0-.07h.24a.78.78,0,0,0,.22,0c.08,0,.17,0,.24,0l.06.05.08,0,0,0a1.19,1.19,0,0,1,.42,0A.34.34,0,0,1,24,0s.07,0,.11,0a.23.23,0,0,0,.26,0,.19.19,0,0,0,.08,0l.44,0c.15,0,.31,0,.47,0a.57.57,0,0,1,.14,0,.63.63,0,0,1,0,.13,1.15,1.15,0,0,0,0-.14s.08,0,.1,0,.13,0,.16.07h-.06v0a.07.07,0,0,0,.06,0h.13L26,.29l.11,0c.09,0,.21,0,.31.08a.31.31,0,0,0,.21,0,.32.32,0,0,0,.19.07l.29,0,0,.06a1.26,1.26,0,0,1,.38.1A3.9,3.9,0,0,0,28,.81a.44.44,0,0,0,.16.06c.06,0,0,.1.12.08s.08,0,.12.06l0,0,.15.08,0,0,.07.09c.16,0,.25.14.37.16s0,0,0,.06.24.1.38.11l.11.12h.09l.13.13c.12,0,.18.13.3.17l0,0c.06,0,.07.13.16.15l0,.07,0,0a.3.3,0,0,0,0-.08l0,0c0,.05.09.07.12.13s.1.09.17.09l.37.33H31a.93.93,0,0,0,.16.18l.19.19a1.57,1.57,0,0,1,.15.19c.05,0,.1,0,.14.1s.11,0,.16.1a.45.45,0,0,0,.2.12,1.13,1.13,0,0,1,.22.11.37.37,0,0,0,.23.05.29.29,0,0,0,.2.07l.3.06a.21.21,0,0,1,.24,0c.06,0,.11-.07.19,0s.11,0,.16,0,.16.12.26,0a.29.29,0,0,1,.08.07l.3,0,.07.11,0-.07a1.27,1.27,0,0,1,.28.06l.19,0,.05.06.3.06,0,0,.32,0a.19.19,0,0,1,.08,0l.06,0a1,1,0,0,1,.33.09,1.21,1.21,0,0,1,.32.11.51.51,0,0,0,.2.06c.09,0,.13.1.23.08s.13.06.2.09l.1,0L37,4.66l.13,0,.19.11,0,0a.15.15,0,0,1,.15,0s.1,0,.14.07h0a.4.4,0,0,1,.22.12s0,0,.09,0a.72.72,0,0,0,.19.14,3,3,0,0,0,.31.16c.07,0,.1.09.16.13h.11a.41.41,0,0,0,.07.11v0a.24.24,0,0,1,.18.1.49.49,0,0,0,.19.1c.1,0,.11.06.13.16s.14,0,.17,0,.22.15.27.29a.28.28,0,0,1,.19.09,3.83,3.83,0,0,0,.29.28,1.83,1.83,0,0,0,.32.3.54.54,0,0,1,.14.16,2.13,2.13,0,0,0,.21.22.81.81,0,0,1,.16.16.75.75,0,0,1,.14.17s.05,0,.07,0a.32.32,0,0,0,0,.09s.06.11.1.13.06.08.11.11l.1.08s0,.09.06.12,0,.07.05.11,0,.06.07.09l0,0v.11l.17.15,0,0,.08.05,0,0,0,0c.08.12.11.28.25.37s0,.05,0,.08l.09.1v.1c.09,0,.1.08.12.14a.88.88,0,0,0,.12.17v.11h0l0,0v0l0,0,.11,0-.05.06.07.1a.34.34,0,0,0,0,.09c.09,0,.08.16.16.19v.15l.06,0,0,.21.11.1,0,.1,0,0a0,0,0,0,1,0,0,.51.51,0,0,0,.06.21,1.25,1.25,0,0,1,.12.3c0,.11.07.21.09.32a.87.87,0,0,0,.1.19l0,0,0,.14s0,.09.07.14v.16l.07,0a.34.34,0,0,0,0,.1s0,.05,0,.08l-.09,0,.06,0c0,.06.05.14.08.22l-.06,0,.1.14,0,0s0,.09,0,.1,0,.06,0,.09,0,.07,0,.11a.14.14,0,0,1,0,.11s.07.06,0,.09a.31.31,0,0,1,0,.19.29.29,0,0,1,0,.09l.06,0,0,0,0,0a.2.2,0,0,0,0,.23l0,.06c.09.1,0,.23.07.35a.14.14,0,0,1,0,.16c0,.12,0,.26.1.36l0,.05c.14.13.13.34.25.51s.11.07.12.23h.08s0,.07,0,.11a.41.41,0,0,1,.17.15c0,.07.15.07.16.17l.16.08a.17.17,0,0,0,0,.07l.13.18c0,.06.08.14.13.16s.07.14.17.13a.68.68,0,0,0,.26.37.35.35,0,0,0,.1.2.76.76,0,0,1,.12.19c0,.06.09.1.09.18a.34.34,0,0,0,.09.13s0,0,0,.09,0,0,.06.08,0,.06,0,.09,0,.06,0,.1.07.11.09.16,0,.13.09.15l0,0a1.62,1.62,0,0,0,.23.5l0,0a1,1,0,0,1,.09.18,1.51,1.51,0,0,0,.1.17.24.24,0,0,1,.05.14A.17.17,0,0,0,47,20a.36.36,0,0,1,0,.09l.06,0a0,0,0,0,1,0,0s0,.07,0,.08.05.12.08.17.08.29.14.43,0,.15.06.23a.79.79,0,0,1,.06.22l.09.35s0,0,0,0l0,.32s0,.07,0,.1,0,.28.07.41l0,.16,0,0c.08.11,0,.24.06.36s0,.24,0,.35a.27.27,0,0,0,0,.25l0,.06,0,.05.06,0a.57.57,0,0,0,0,.13s0,.05,0,.09a.07.07,0,0,1,0,.1c0,.05,0,.09,0,.12a1.19,1.19,0,0,0,0,.42,2.85,2.85,0,0,0,0,.29c0,.1,0,.2,0,.3a1.46,1.46,0,0,0,0,.22s0,0,0,.07,0,.06,0,.09a2.07,2.07,0,0,1-.08.42.31.31,0,0,1-.06.2c0,.11,0,.11-.06.29s0,.15,0,.2-.05.19-.09.28,0,0,0,0a.56.56,0,0,1,0,.13,1.35,1.35,0,0,1-.11.32c0,.2-.15.38-.18.59a.18.18,0,0,1,0,.09,1.07,1.07,0,0,0-.13.31.3.3,0,0,1-.06.11s0,0,0,.05-.07.14-.08.22-.07.12-.11.19a.77.77,0,0,0-.07.16l0,0c-.12.1-.13.27-.23.38a.44.44,0,0,0-.12.18,1.39,1.39,0,0,1-.11.21l-.11.18-.21.3c-.05.07-.13.12-.12.22s-.08.08-.11.12a1.09,1.09,0,0,0-.23.29s0,0-.06.06-.27.28-.41.41-.16.19-.23.27a2.32,2.32,0,0,1-.14.23.78.78,0,0,0-.16.33s-.06.1-.08.15a.21.21,0,0,0-.05.17l0,0c0,.08-.05.16-.08.25s0,.08,0,.17,0,.08,0,.11,0,.14,0,.22,0,.19,0,.29,0,.23,0,.35a.8.8,0,0,1-.1.45.1.1,0,0,1,0,0l0,0c0,.05,0,.11,0,.14s0,.1,0,.14,0,.09-.06.14a.78.78,0,0,1,0,.22c0,.1,0,.2-.07.29s-.06.26-.1.38,0,0,0,0-.09.17-.12.26-.07.19-.08.29a.5.5,0,0,1-.09.23c-.11.17-.14.37-.24.55,0,0,0,.06,0,.08s-.11.26-.22.36.06.06,0,.08h0l0,0h0l0,0a2,2,0,0,1-.19.31c0,.06-.06.15-.11.22s-.1.17-.16.25a.1.1,0,0,1,0,0l-.25.39-.07.09c0,.07-.1.14-.14.21a1.46,1.46,0,0,1-.16.19,1.89,1.89,0,0,0-.2.27.44.44,0,0,1-.08.11c-.1.1-.18.22-.27.33a.61.61,0,0,1-.2.19.39.39,0,0,0-.12.14.15.15,0,0,1-.06.09c-.07,0-.09.09-.13.12s-.08.1-.13.14h-.06s0,.08-.11.11-.06.08-.09.12a.38.38,0,0,1-.14.11s-.07.07-.13.1-.07.07-.13.13-.07,0-.08,0-.08.11-.13.13-.11.1-.18.12-.09.08-.14.12-.1,0-.11.09h0a1.21,1.21,0,0,0-.22.15l-.23.17-.08.05c-.22.11-.43.23-.64.36a.68.68,0,0,1-.26.11c-.05,0-.09.07-.14.09l-.52.24a.76.76,0,0,1-.16.06.33.33,0,0,0-.16.07.07.07,0,0,1-.06,0c-.13,0-.22.09-.33.1a.27.27,0,0,1-.09,0,.59.59,0,0,1-.38.14c-.06.08-.16.08-.25.09l-.2.06a.78.78,0,0,1-.23.05l-.17,0c-.17,0-.35.07-.52.11a2.36,2.36,0,0,0-.52.09s0,0-.08,0-.13,0-.19,0-.06,0-.09,0l0,0-.06,0-.08,0h-.22a1.7,1.7,0,0,0-.59.06h0a.57.57,0,0,0-.36.11l-.26.1c-.06,0-.14,0-.15.12h-.07a2.54,2.54,0,0,0-.24.2,1.53,1.53,0,0,1-.18.18c-.07,0-.09.11-.15.15a.38.38,0,0,0-.14.11,1.2,1.2,0,0,1-.41.33c-.07,0-.11.12-.18.16a1,1,0,0,0-.2.13c-.06.07-.16.06-.21.14s0,0-.08.07a1.23,1.23,0,0,1-.25.14c-.05,0-.08.06-.13.09a1.75,1.75,0,0,0-.35.2c-.22.06-.38.24-.6.28s-.36.14-.52.25A.85.85,0,0,1,28,47v0a1.62,1.62,0,0,0-.48.17c-.13,0-.24.08-.37.08a.55.55,0,0,0-.23.09l-.18,0a1.32,1.32,0,0,0-.39.1l-.09,0a1.49,1.49,0,0,0-.47.07,1.69,1.69,0,0,1-.38.07l-.08,0,0,0,0,0a.28.28,0,0,1-.24,0c-.06,0-.13,0-.19,0s-.19,0-.28,0-.06,0-.09,0a.13.13,0,0,0-.12,0,.7.7,0,0,1-.16,0l-.13,0-.3,0s-.1.09-.19,0-.1,0-.15,0c-.27,0-.53,0-.8,0a1.2,1.2,0,0,1-.23,0l-.05-.06-.12,0c-.07-.07-.19,0-.27-.06s-.3-.1-.46-.07h-.06a.49.49,0,0,0-.29,0,.2.2,0,0,0-.05,0c-.17-.05-.33-.07-.49-.13a1.61,1.61,0,0,1-.29-.09,1,1,0,0,0-.29-.1c-.06,0-.11-.08-.18-.07s-.09-.09-.17-.07-.06-.05-.09-.07l0,0a.85.85,0,0,1-.17-.06.51.51,0,0,0-.16-.09.28.28,0,0,1-.15-.08,1.09,1.09,0,0,0-.19-.1h-.08l-.07-.1-.09,0-.07-.1h-.1l-.05-.1h-.15a.36.36,0,0,1-.07-.1h-.09L18,46.13c-.15,0-.23-.15-.37-.14l-.09-.13h-.09l-.2-.15,0,0L17,45.59c-.05-.11-.15-.17-.23-.26a.22.22,0,0,1-.22-.15.23.23,0,0,0-.12-.15,3,3,0,0,1-.34-.28,1,1,0,0,1-.15-.2h-.12l-.05-.06a.17.17,0,0,0-.12-.11.53.53,0,0,1-.24-.11l-.06,0-.19-.06-.35,0a.43.43,0,0,1,0,0,.26.26,0,0,1-.21,0l-.14,0H14l-.12,0a.29.29,0,0,1-.13,0,2.3,2.3,0,0,0-.28-.06l-.22,0c-.07,0-.14,0-.2,0s-.3-.1-.46-.07-.22,0-.3-.12l-.39,0-.08-.1,0,0-.06-.09-.06,0a.08.08,0,0,1,0-.06h-.16a.72.72,0,0,0-.33-.11c-.08-.09-.2-.07-.31-.11a.06.06,0,0,0,0,0h0a.9.9,0,0,1-.42-.19s-.08,0-.12,0L10.19,43h-.11l-.08-.1s0,0,0,0l-.17-.08H9.74l-.06-.1H9.55l-.06-.1H9.36l-.11-.14,0,0-.12-.13H9l-.13-.19-.1,0c-.05-.06-.12-.08-.13-.17s-.14,0-.2-.11h0l0,0h0l0,0-.12-.12,0,0-.17-.14-.14-.17H7.81c0-.12-.15-.15-.22-.24a3.07,3.07,0,0,0-.25-.26,3.08,3.08,0,0,0-.27-.24l0,0s0,0,0,0,0,0,0-.08-.16-.12-.19-.23a.59.59,0,0,1-.22-.19,1.81,1.81,0,0,1-.15-.19l-.12,0,0-.11-.06,0-.06-.12C6,39.63,6,39.63,6,39.54l-.19-.15v-.13l-.16-.11A1.89,1.89,0,0,1,5.57,39l-.13-.09a.09.09,0,0,0,0-.06l-.11-.11a.38.38,0,0,1,0-.1.7.7,0,0,0-.16-.13v-.12a.26.26,0,0,1-.08-.14c0-.06-.05-.11-.08-.18a.19.19,0,0,1-.14-.17.25.25,0,0,0-.08-.18.65.65,0,0,1-.08-.17.29.29,0,0,0-.09-.15l0-.06c-.06,0-.08-.06-.1-.1a.75.75,0,0,1,0-.16s-.08-.07-.06-.13,0-.12-.08-.16,0-.09-.05-.14a.85.85,0,0,0,0-.17,1,1,0,0,0,0-.12l0,0-.09-.05a.26.26,0,0,0-.1-.26l0,0c-.09-.12-.06-.27-.12-.4l.06,0v0l-.09,0c0-.12,0-.23-.05-.35L3.88,35c0-.11-.1-.24,0-.37l-.07-.06a.65.65,0,0,1,0-.11l-.06-.07,0,0a2,2,0,0,1,0-.24.59.59,0,0,1,0-.23c0-.08,0-.15,0-.22l.07,0-.08,0,0-.14-.07-.08s0,0,0-.05a4.18,4.18,0,0,1,0-.51l-.07,0,.07,0s-.06,0-.06-.08-.14-.32-.14-.49l-.1-.06v-.11l-.16-.13v-.12a.57.57,0,0,0-.13-.1c-.05,0-.07,0-.08-.1s-.07-.07-.12-.07l0-.12H2.8a.38.38,0,0,0-.09-.09l0,0h0l0,0,0,0,0,0,0,0,0,0-.09,0-.15-.17c0-.06,0-.11-.08-.16s0,0,0,0a.54.54,0,0,0,0-.11.17.17,0,0,1-.06.06l-.15-.16V30.6l-.11-.13h0l0,0h0l0,0L2,30.4v-.12l-.16-.12.07-.1L1.71,30c0-.06,0-.12-.05-.18l-.09-.06v-.13l-.08-.06-.06-.2H1.34v-.16L1.17,29V29L1,28.7v-.08A.6.6,0,0,0,1,28.54l0-.06-.06,0a.53.53,0,0,0,0-.14H.88l-.06-.23s0,0,0,0a1.37,1.37,0,0,1-.16-.32.09.09,0,0,1,0-.05l-.06,0v-.13l-.06,0-.06-.3-.05-.06a.52.52,0,0,1,0-.11h0c0-.1-.06-.2-.09-.33l0-.05a.09.09,0,0,1,0-.05.61.61,0,0,0,0-.06H.36l0-.06v-.07h0s0,0,0,0a0,0,0,0,0,0,0l0,0m20.88,11.1h0v0h0Z"/><path class="cls-2" d="M18.12,27.6v0l0,0h0"/><path class="cls-2" d="M38.72,14.82v0l0,0h0"/><path class="cls-3" d="M9.68,29.6l.14,0,.37.16c.13.06.27.06.39.11a.18.18,0,0,0,.12,0,.32.32,0,0,1,.17.06h0l0,0,.15.09.08,0a.69.69,0,0,1,.25,0l.16,0s.09-.06.12,0l.15,0a0,0,0,0,1,0,0L12,30l-.09-.15.07,0-.06,0c0-.11-.05-.22-.07-.33s0-.2-.05-.3-.1-.21,0-.31l-.06-.11v-.15a.38.38,0,0,1,0-.15c0-.05,0-.07,0-.12s0-.08,0-.13a.75.75,0,0,0,0-.15s0-.08,0-.12,0-.08,0-.13a.53.53,0,0,1,0-.18v-.35l0-.07,0,0a1.1,1.1,0,0,1,0-.54l0,0,0-.07c0-.05-.08-.08,0-.13s0-.09,0-.13l0-.09c0-.08,0-.08,0-.18s0-.06,0-.08a.21.21,0,0,0,0-.19s0-.09,0-.14l0,0a.23.23,0,0,0,0-.25.16.16,0,0,0,0-.07c-.07,0,0-.1,0-.15s0-.1,0-.15a.88.88,0,0,1,0-.17l0,0a.26.26,0,0,0,0-.28l0-.05a.43.43,0,0,0,0-.07s.07-.07,0-.12,0-.07,0-.11a.36.36,0,0,0,0-.11l0-.1,0-.09a.89.89,0,0,1,0-.15s0-.1,0-.12,0-.09,0-.13l-.05,0a.29.29,0,0,1,0-.16c0-.05,0-.1,0-.15s0-.18.07-.26,0-.08,0-.12a.66.66,0,0,1,0-.14V22.4a.66.66,0,0,1,0-.14s-.05-.06,0-.11,0-.07,0-.11a.47.47,0,0,0,0-.35l.11,0-.12-.09.09-.05,0-.07a.15.15,0,0,0,0-.18s0,0,0-.07,0-.08,0-.12,0-.08,0-.09,0-.13,0-.18a.19.19,0,0,1,0-.09v-.88s0-.07,0-.1a.44.44,0,0,1,0-.3c0-.05,0-.12,0-.18s0-.06,0-.09a1,1,0,0,1,0-.17s-.06-.08,0-.12,0-.1,0-.14,0-.13,0-.17a.71.71,0,0,1,.07-.09l-.06,0v-.39s0-.09,0-.12,0-.07,0-.09,0-.07,0-.11,0-.07,0-.11.06-.07,0-.13a.84.84,0,0,1,0-.12c-.05,0-.11-.07-.13-.12a.5.5,0,0,0-.12-.13L11.21,17s-.05,0-.06.05a.74.74,0,0,0-.33-.24c-.05-.08-.08-.14-.19-.13l-.08-.08a.15.15,0,0,1-.14-.06h-.14s0-.06,0-.1-.16-.06-.25-.07a.8.8,0,0,1-.26-.09,1,1,0,0,0-.24-.1c-.1,0-.18-.06-.28-.09h0L9,16,9,16c-.08,0-.15,0-.23,0a1.21,1.21,0,0,0-.37-.11l-.42-.07c-.09,0-.18,0-.25,0l-.16,0a1,1,0,0,0-.17,0l-.5,0s0,0,0,0-.15,0-.23,0a.63.63,0,0,0-.24,0s-.11,0-.13,0-.13,0-.18,0l0,.17c.14.09.14.3.29.4l0,.06.12.06a.49.49,0,0,0,.16.36,1.11,1.11,0,0,0,.07.26,1.94,1.94,0,0,1,.15.36s0,0,0,.08l0,.05.1.06a.81.81,0,0,0,.08.34A.51.51,0,0,1,7,18l.07.06,0,0a.88.88,0,0,0,0,.24,1.19,1.19,0,0,0,.07.27c.06.09,0,.21.06.29a3.32,3.32,0,0,0,.06.44c0,.15,0,.3.07.44s0,.05,0,.08l0,0,0,.06a.14.14,0,0,1,0,.06c0,.13,0,.26,0,.39s0,.32,0,.49a.45.45,0,0,1,0,.32s0,.06,0,.08,0,.1,0,.15v.3a.45.45,0,0,0,0,.11.23.23,0,0,0,0,.23.39.39,0,0,1,0,.3s0,0,0,.08-.07.09,0,.13a.11.11,0,0,1,0,.14c.08.15-.05.29,0,.43s0,0,0,.05l.07.05c0,.07,0,.09,0,.13a.5.5,0,0,0,0,.15c.06.11,0,.22,0,.34l-.08,0,.08.07a1.77,1.77,0,0,1,0,.2c.05,0,0,.07,0,.12s-.06,0,0,.08,0,.06,0,.08,0,.08,0,.08,0,.13,0,.2,0,.13,0,.2,0,.1,0,.14,0,.21,0,.31a.23.23,0,0,1,0,.18s.06.07,0,.11l0,0a.78.78,0,0,1,0,.37.17.17,0,0,1,0,.18s0,.07,0,.09,0,.22,0,.32a1,1,0,0,0,.08.3v0l0,0v0l.06,0c0,.12.14.21.1.34l.08.08,0,.05c0,.05,0,.1.07.14h0l.13.12v.11L8,28l.16.3a.73.73,0,0,1,.09.08.36.36,0,0,1,.07.1.42.42,0,0,1,0,.1c.09,0,.12,0,.15.12a.2.2,0,0,0,0,.08l.16.11a.88.88,0,0,0,.15.12c.13.08.15.09.2.21l.15.05a.82.82,0,0,0,.43.26,4.14,4.14,0,0,0,.95.4h0l0,0h0s0,0-.83-.33"/><path class="cls-3" d="M25.51,24.86h0l0,0h0s0,0,0-.41a.21.21,0,0,1,0,.06s-.05.06,0,.11,0,.09,0,.13-.05.2,0,.31a2.46,2.46,0,0,1,0,.47c0,.16,0,.31,0,.5l-.06,0,.07.11a.35.35,0,0,0,0,.13c0,.11,0,.22,0,.33s0,.08,0,.12h.05c0,.09,0,.18,0,.29a.63.63,0,0,0,0,.33,1.34,1.34,0,0,1,0,.2v.84a1.65,1.65,0,0,1,0,.21,1.24,1.24,0,0,0,0,.18.53.53,0,0,1,0,.12c.06.09,0,.19,0,.28v.62c0,.1,0,.2,0,.28l.06.11s0,.11,0,.16l.27.33a.18.18,0,0,1,.13-.11.27.27,0,0,0,.23,0,1.36,1.36,0,0,1,.2,0c.07,0,.16,0,.21,0s.09,0,.11,0a1.16,1.16,0,0,1,.33,0s0-.05,0-.05a2.41,2.41,0,0,0,.49-.07l.44-.13.05-.05c.05,0,.1,0,.12,0s.32-.14.48-.18.2-.09.31-.12.07-.05.12-.06.09-.06.13-.09a.37.37,0,0,1,.16-.07c.08,0,.11-.06.17-.06s.1-.08.16-.12,0,0,0,0h.09a.89.89,0,0,1,.18-.13c.06,0,.1-.08.15-.11s.1-.09.14-.14a.93.93,0,0,0,.15-.13l.15-.14c0-.12.09-.14.11-.17a.44.44,0,0,1,.05-.13.93.93,0,0,0,.1-.37.89.89,0,0,1,.11-.36l0,0s0-.09,0-.14a.17.17,0,0,1,0-.12s0-.11,0-.14,0-.08,0-.13a.67.67,0,0,0,0-.2.61.61,0,0,0,0-.19c0-.06,0-.11,0-.17a1.08,1.08,0,0,1,0-.18c0-.05,0-.1,0-.15s0-.12,0-.18V25s0-.09,0-.11a.64.64,0,0,1,0-.09v-.57a.67.67,0,0,1,0-.2c0-.06,0-.11,0-.16a2.09,2.09,0,0,0,0-.25.88.88,0,0,1,0-.23,1.77,1.77,0,0,0,0-.23v-.37s0,0,0-.06a.7.7,0,0,0,0-.38.47.47,0,0,0,0-.2A.25.25,0,0,1,31,22v-.39l0,0,0-.05a.11.11,0,0,1,0-.05.5.5,0,0,0,0-.34L31,21.1c-.07-.05-.05-.11,0-.16s-.05-.09,0-.16,0-.1,0-.15,0-.22.06-.3,0,0,0-.07,0-.14,0-.19,0-.1,0-.15,0-.16,0-.23,0-.13,0-.21l.06,0a.83.83,0,0,1,0-.13.35.35,0,0,1,0-.2.17.17,0,0,0-.06-.06L31,19c0-.05,0-.11,0-.15s0-.12,0-.2a.49.49,0,0,0,0-.21.18.18,0,0,1,0-.14c0-.05,0-.11,0-.17a2.54,2.54,0,0,1,0-.55c0-.2,0-.41,0-.61a.34.34,0,0,1,0-.22.48.48,0,0,0,0-.12.4.4,0,0,1,0-.27c.06-.06,0-.14,0-.2l0-.05s0-.05,0-.07a.32.32,0,0,1,.08-.23s0-.05,0-.06,0-.08,0-.12a.61.61,0,0,1,.08-.3.2.2,0,0,0,0-.17.44.44,0,0,0,.1-.37l.07-.07a.71.71,0,0,1,.08-.38,1.34,1.34,0,0,0,.07-.18c0-.06,0-.14.08-.17l0,0a.5.5,0,0,0,.1-.19c0-.08.07-.14.09-.21h0c0-.08,0-.14.06-.24l.12-.1a.08.08,0,0,0,0,0c.09,0,.06-.16.14-.21s.09-.11.12-.18a1.32,1.32,0,0,1,.12-.2l-.07-.07-.09,0s-.06,0-.11,0a.58.58,0,0,1-.23,0l-.22,0c-.12,0-.25,0-.37,0s-.12,0-.19,0a1.38,1.38,0,0,0-.2,0c-.15,0-.3,0-.45.05l-.12.06-.05,0a.23.23,0,0,1-.07.07s-.1,0-.14,0-.31.07-.47.07l-.07,0a2.39,2.39,0,0,1-.53.19,2.67,2.67,0,0,0-.26.09,1,1,0,0,0-.18.09c-.06,0-.14,0-.19.11h-.07l0-.06h0v.12l-.19,0a.34.34,0,0,1-.24.13c0,.09-.08.09-.12.13a1.58,1.58,0,0,0-.26.13c-.14.11-.27.24-.41.37l-.19.18a.07.07,0,0,1-.05,0,.67.67,0,0,1-.06.12H26.7c0,.13-.14.2-.22.3V15l-.22.29,0,.05s-.1.05-.1.08-.15.24-.15.38l-.06,0s0,0,0,0a.11.11,0,0,1,0,.05.59.59,0,0,0-.1.16.84.84,0,0,1-.06.14.32.32,0,0,0,0,.09.69.69,0,0,0,0,.13l-.07,0v.21c-.09.12-.07.27-.14.4a.08.08,0,0,1,0,0l-.07.07,0,.08s0,.05,0,.07,0,.14,0,.2a.63.63,0,0,0,0,.19c-.06,0,.05.12,0,.16s0,.1,0,.16a1.33,1.33,0,0,1,0,.2v.63a.18.18,0,0,1,0,.14.11.11,0,0,0,0,.13.29.29,0,0,0,0,.09c0,.2,0,.4,0,.6a0,0,0,0,1,0,0l-.07,0,.08,0a.37.37,0,0,0,0,.11c.05.08,0,.17,0,.26s0,.11,0,.18l-.07,0c0,.09,0,.17.05.25l0,0c0,.12,0,.25,0,.37s0,.08,0,.13a.18.18,0,0,1,0,.19.23.23,0,0,0,0,.21c0,.07-.05.08,0,.12a.11.11,0,0,1,0,.11.24.24,0,0,0,0,.22.69.69,0,0,0,0,.13c0,.19,0,.37,0,.56a.52.52,0,0,1,0,.11l0,0s0,0,0,0l.05.13c0,.14,0,.24,0,.35l.05,0-.07,0c.05.06.1.12,0,.21a2,2,0,0,1,0,.55,4.4,4.4,0,0,0,0,.53"/><path class="cls-3" d="M17.72,16s0,0,0,0l-.15-.43h0a1.21,1.21,0,0,1-.05-.14l-.05-.14-.08-.06c0-.05.09-.06,0-.13l0,0s0-.06,0-.1h-.09c0-.17-.15-.24-.24-.35s0,0,0-.06-.2-.2-.28-.32-.06,0-.09-.09-.08-.06-.12-.1a0,0,0,0,1,0,0c-.06,0-.12,0-.14-.05s-.18-.11-.2-.23l-.06,0,0,0a.64.64,0,0,1,0-.07l-.16,0-.13-.12s0-.05,0-.08l-.08.12-.17-.17-.32-.1s0,0-.07-.08l-.05,0,0-.09-.25,0a.42.42,0,0,0,0-.06.7.7,0,0,1-.34-.1.33.33,0,0,1-.14,0,2.52,2.52,0,0,0-.47-.13l-.3-.09a1.3,1.3,0,0,0-.31,0h0c-.06-.07-.14,0-.21,0s-.14-.06-.22,0a.39.39,0,0,1-.15,0,1.26,1.26,0,0,0-.43-.08h-.18a.34.34,0,0,1-.17,0s-.12,0-.18,0-.07,0-.09,0-.15,0-.22,0v.2h0l.06.16h.09a.24.24,0,0,0,.11.23l.15.31h0c0,.11.1.2.08.32a.1.1,0,0,0,0,.07c.11,0,.08.13.13.18A.56.56,0,0,1,12,14l.08,0,0,.12.08.07a1.43,1.43,0,0,0,.05.18c0,.05,0,.07,0,.12s0,0,0,0a.14.14,0,0,0,0,.07l0,0c0,.09.08.17.07.23s0,.15,0,.22l.07.06c0,.18.05.36.08.57l.06,0,0,.08c0,.08.05.15.07.22l0,0,.06.07c0,.05,0,.11,0,.16s0,.11,0,.17.05.09,0,.15,0,.1,0,.16l0,0a.74.74,0,0,1,0,.14s0,.11,0,.13,0,.08,0,.12,0,.06,0,.11,0,.08,0,.15.1.14,0,.24,0,.26,0,.39a0,0,0,0,0,0,0,.88.88,0,0,0-.05.15l.06,0,0,.08a.43.43,0,0,0,0,.07l0,0,0,0,0,0a.89.89,0,0,1,0,.14.92.92,0,0,0,0,.29.09.09,0,0,1,0,.1c0,.06,0,.12,0,.19v.56l-.08,0,.08,0V20l0,.06a.45.45,0,0,0,0,.14c.06.07,0,.13,0,.19a.14.14,0,0,1,0,.09.82.82,0,0,0,0,.31c.06.1,0,.17,0,.24s.1.21,0,.33a.14.14,0,0,1,0,.17c0,.07,0,.1,0,.14v.68a.89.89,0,0,0,0,.15.27.27,0,0,0,0,.26l0,.06,0,.07c-.09.1,0,.2,0,.3s0,.2,0,.3a0,0,0,0,1,0,0s0,0,0,0l0,.13v.18c0,.06,0,.13,0,.18s0,.11,0,.16l0,.05c0,.06,0,.14,0,.21v.67a.89.89,0,0,1,0,.23c0,.07,0,.13,0,.19s0,.14,0,.21,0,.14,0,.2a.77.77,0,0,1,0,.45.42.42,0,0,1,0,.33,1.18,1.18,0,0,1,0,.37s0,.09,0,.12,0,0,0,0a.41.41,0,0,1,0,.11.33.33,0,0,0,0,.1s0,.06,0,.09,0,.05,0,.08,0,.07,0,.09,0,0,0,.08,0,.08,0,.1a.32.32,0,0,1,0,.19,2.32,2.32,0,0,1,0,.46s0,0,0,0,0,.08,0,.1a.47.47,0,0,1,0,.17c0,.06,0,.12,0,.19a.24.24,0,0,0,.07.19l0,0c.06,0,0,.07,0,.11s0,.07,0,.1,0,.07,0,.11a.75.75,0,0,1,.07.12l0,0c.08.1.07.24.11.36a.36.36,0,0,1,0,.11.44.44,0,0,0,0,.16c.08.15.08.32.16.46a.93.93,0,0,1,0,.13l.06,0,.05,0,0,0a1.4,1.4,0,0,1,.09.29.2.2,0,0,0,0,.13c.08.06.08.16.12.24s.12.21.15.32,0,0,.06.07v.09l.1.07v.1l.09.1s0,.06,0,.06.05.13.1.18a1.09,1.09,0,0,1,.13.17,2.68,2.68,0,0,1,.12.24c.09,0,.15.15.24.22a.41.41,0,0,1,0,.11s.06,0,.07,0a1,1,0,0,0,.22.24,1.81,1.81,0,0,0,.18.21c0,.05.1.07.14.12a.65.65,0,0,1,.13.16.08.08,0,0,0,.1,0l0,0v.06c.1.13.25.2.32.36h.06a.38.38,0,0,1,.11.11s0,.07.07.09a.3.3,0,0,1,.08.07l.11.07.11,0a.47.47,0,0,0,.2.22h.09l0,.06h.08a.15.15,0,0,0,.16.13l.14.14.22.1.06.09h.12c0,.12.13.11.2.14a.56.56,0,0,0,.05.08h.12l.12.13H18l0,.06.17.05a.35.35,0,0,0,.28.13l.06.06.19.1h.05l.39.21,0,0s.05.06.08.06a6.37,6.37,0,0,0,.61.23c.13,0,.25.09.38.12a3.39,3.39,0,0,1,.41.15l0,0a8,8,0,0,0,1.1.24.21.21,0,0,1,0,.07l.09,0,0,0a1.78,1.78,0,0,0,.47.08c.06,0,.14,0,.19,0s.18,0,.24,0,.16,0,.24,0h.25v0s.09,0,.11,0a.15.15,0,0,0,.11,0s.07-.05.1,0,.09,0,.13,0l.11,0,.09,0c.07,0,.15,0,.21,0a.43.43,0,0,1,.25,0l0,0,.14,0a.89.89,0,0,0,.23,0c.08,0,.15,0,.22,0l.13,0,.13,0s.1,0,.11,0,.07,0,.1,0,.09,0,.11,0,.2,0,.3,0l.07,0a.33.33,0,0,1,.17,0l.19,0a.74.74,0,0,0,.21,0l.19,0c.07,0,.15,0,.2,0s.07,0,.09,0a.34.34,0,0,1,.22,0c.05,0,.1,0,.13,0a.55.55,0,0,1,.28-.06c.1,0,.2-.05.3,0s.22-.05.34,0h0a1.24,1.24,0,0,1,.38-.09,1.31,1.31,0,0,1,.44-.07l0,0c.11,0,.2-.08.31-.08s.12,0,.21-.1.09,0,.13,0,.18,0,.26-.08a2.77,2.77,0,0,1,.26-.1.11.11,0,0,1,.15,0,.14.14,0,0,1,.13-.1,4.45,4.45,0,0,0,.51-.19l.06,0,.07-.11h0l0,0h0l0,0c0-.08.11,0,.16,0l.05-.05.21,0a.51.51,0,0,1,.21-.16.28.28,0,0,0,.15-.06,2.85,2.85,0,0,1,.3-.16l.1,0,.17-.14c.09,0,.12-.1.21-.07s.1,0,.08-.08.15-.08.18-.15.17-.11.24-.17h.1s0-.05,0-.06l.3-.24c.06-.06.16-.07.18-.17h.06l.16-.21c.07,0,.14-.07.16-.12s.13-.11.19-.17,0-.07.08-.08l.1-.06v-.08l.07,0v-.07c.15-.05.17-.25.33-.29,0-.1.06-.14.14-.18s.06-.14.11-.2a2.37,2.37,0,0,0,.22-.33c.07-.14.09-.14.19-.16l0-.1.14-.16c.05,0,.05-.12.1-.16a.17.17,0,0,0,.06-.11c0-.07.06-.09.11-.12l0-.07,0,0a3.61,3.61,0,0,0,.22-.44.19.19,0,0,1,.05-.1.25.25,0,0,0,0-.12.7.7,0,0,1,.1-.26.13.13,0,0,0,0-.06c0-.12.08-.24.13-.36l0,0,.08-.05,0,0,0-.06c0-.11.07-.22.11-.32a.14.14,0,0,0,0-.06c0-.05,0-.1,0-.15s0-.1,0-.13,0-.09,0-.12.06-.18.06-.27,0-.16,0-.24l0,0c0-.05,0-.08,0-.13a.36.36,0,0,0,0-.15h0c0-.09.06-.17.08-.25s0-.05,0-.09a.37.37,0,0,1,0-.26l0,0,0,0,0-.18c0-.05,0-.12,0-.16s0-.11,0-.15a0,0,0,0,1,0-.06s0-.06,0-.09a2.81,2.81,0,0,0,0-.29c0-.08.09-.16,0-.25s0-.22,0-.32a.49.49,0,0,1,0-.11.11.11,0,0,1,0-.17s0,0,0,0,0-.09,0-.13,0-.1,0-.11,0-.06,0-.09a.27.27,0,0,0,0-.12.15.15,0,0,0,0-.07.16.16,0,0,0,0-.18c0-.05,0-.08,0-.13s0-.09,0-.14,0-.17,0-.25,0-.07,0-.1,0-.08,0-.11a.08.08,0,0,1,0-.11s0-.07,0-.12a.1.1,0,0,0,0-.07s-.05-.05,0-.1,0-.06,0-.09v-.47a.45.45,0,0,1,0-.11.14.14,0,0,1,0-.18,1,1,0,0,1,0-.12.41.41,0,0,1,0-.19c0-.06,0-.1,0-.15v-.59a.15.15,0,0,1,0-.08,1.55,1.55,0,0,1,0-.17v-.42a1.18,1.18,0,0,1,0-.42c-.08-.11,0-.23,0-.35s0,0,0-.05,0,0,0,0v-.33c.07,0,0-.07,0-.11s.06-.08,0-.12a2.32,2.32,0,0,1,0-.37s0-.07,0-.11,0-.08,0-.13a.36.36,0,0,1,0-.09c.06,0,0-.09,0-.14l0,0s0-.1,0-.12,0-.09,0-.13a4.43,4.43,0,0,1,.07-.81s0,0,0,0a.62.62,0,0,1,0-.33c0-.1.07-.22,0-.32l.08-.09,0-.07a2.32,2.32,0,0,1,.08-.22c0-.21.07-.37,0-.54s.06-.11.07-.19a.7.7,0,0,1,.1-.32v-.14l0,0c0-.08,0-.15,0-.19A.44.44,0,0,0,38,16.1l.09-.06,0,0a.36.36,0,0,1,0-.11.47.47,0,0,1,.06-.09l0,0a1.94,1.94,0,0,1,.15-.24.88.88,0,0,0,.13-.3c.09-.11.22-.18.23-.34s.08,0,.09,0h.07v0h-.06v-.09l.09,0,0,0,.16-.23a.45.45,0,0,0-.32-.06h-.52l-.1,0a.15.15,0,0,1-.07,0h-.32l-.3,0c-.22,0-.44,0-.65,0h0c-.05.06-.13,0-.18,0s-.12,0-.18,0-.13,0-.2,0l-.07,0c-.12,0-.23.1-.35.07h0l0,0-.28.08c-.09,0-.16.08-.24.1a.88.88,0,0,0-.27.1,1.37,1.37,0,0,0-.49.26l-.06,0-.1,0-.33.26-.11.08s0,.08-.09.1a.18.18,0,0,0-.11.1c0,.07-.07,0-.09.09a2.25,2.25,0,0,1-.31.37c-.07.08-.09.2-.2.24a.1.1,0,0,1-.1.13l0,0c0,.12-.15.2-.17.32s-.09.32-.22.43v0a2.1,2.1,0,0,1-.15.42,3,3,0,0,0-.11.4,1,1,0,0,1-.1.38.52.52,0,0,0,0,.17l-.06.1a.1.1,0,0,1,0,.12s-.06.11-.05.16,0,.39,0,.59A.32.32,0,0,1,32,20s0,.08,0,.12a.08.08,0,0,0,0,.13.18.18,0,0,0,0,.21c-.05.07,0,.14,0,.2l-.08,0c.12.07,0,.19.09.27s-.07.18,0,.27l0,0h0v.55a.14.14,0,0,0,0,.09v0l0,0a.92.92,0,0,0,0,.37s0,.09,0,.14a.1.1,0,0,1,0,.14c0,.07,0,.1,0,.15l0,.07s0,.06,0,.09a.53.53,0,0,0,0,.12l0,.05,0,.07a.23.23,0,0,0,0,.24.43.43,0,0,0,0,.07l0,0c-.07.05,0,.1,0,.13s0,.11,0,.14,0,.07,0,.1A.09.09,0,0,0,32,24h0s0,0,0,.08a.4.4,0,0,0,0,.15,1.1,1.1,0,0,1,0,.16v0c.05,0,0,.08,0,.12s0,.08,0,.12a.53.53,0,0,0,0,.12.67.67,0,0,0,0,.2c0,.06.05.14,0,.19a.17.17,0,0,0,0,.17l0,.05s0,.08,0,.11-.06.08,0,.12,0,.09,0,.14a.57.57,0,0,1,0,.29.07.07,0,0,1,0,.11c-.06.06,0,.1,0,.13a.54.54,0,0,0,0,.1s0,.06,0,.07,0,.05,0,.08,0,.05,0,.06-.06.21,0,.3A.08.08,0,0,1,32,27s-.05.11,0,.13,0,.1,0,.14,0,.09,0,.14,0,.12,0,.19a.27.27,0,0,0,0,.12c0,.08,0,.15,0,.23s0,.06,0,.1a1,1,0,0,1,0,.17v0c0,.1-.06.2-.08.29a.78.78,0,0,1-.05.23c0,.08,0,.15-.08.22s0,.16-.11.21-.06.12-.1.19a1.33,1.33,0,0,1-.14.19.76.76,0,0,0-.11.14.54.54,0,0,1-.29.23.56.56,0,0,1-.36.25.11.11,0,0,1,0,0c-.07.1-.2.11-.28.2a.25.25,0,0,1-.09,0,.38.38,0,0,0-.1,0,1.88,1.88,0,0,1-.44.24l-.15.05a.59.59,0,0,0-.08.08h-.1a.27.27,0,0,1-.19.1,1.33,1.33,0,0,0-.28.1l-.18.09a1,1,0,0,0-.24,0,2.76,2.76,0,0,1-.27.08,1.73,1.73,0,0,1-.71.14.2.2,0,0,1-.19.07H27.2a1.13,1.13,0,0,1-.36.06h-.06c-.06.05-.12,0-.18,0l-.18,0-.27,0c-.15,0-.31,0-.46,0a2.55,2.55,0,0,0-.55,0h-.05c-.06-.07-.11,0-.14,0l-.09,0c-.06,0-.11,0-.17,0a.12.12,0,0,0-.13,0s-.09,0-.14,0l-.34,0a1.67,1.67,0,0,0-.5,0h0c-.07-.06-.15,0-.22,0a.56.56,0,0,0-.22,0h-.17c-.09-.1-.22-.06-.3-.06a1.71,1.71,0,0,0-.6-.15c-.08-.09-.23,0-.31-.1s0,0,0-.06l-.05,0s-.05,0-.07,0-.05-.06-.08,0,0,0-.07,0a.33.33,0,0,1-.13,0,.3.3,0,0,0-.22-.06s0,0,0-.06h0a.44.44,0,0,1-.28-.11h-.14a.35.35,0,0,0-.06-.09l-.07,0a.64.64,0,0,0,0-.07h-.11a.23.23,0,0,0-.07-.07h-.13l-.07-.11H20s-.06-.09-.08-.09-.09,0-.13-.06a.19.19,0,0,0-.12-.07c-.08,0-.11-.07-.14-.14l-.15,0a.88.88,0,0,1-.17-.16c0-.05-.11-.08-.15-.13s-.11-.11-.16-.16-.12-.11-.17-.17l-.16-.16v-.13l-.06-.07a.54.54,0,0,0,0-.11v0h.06v0a.06.06,0,0,0-.06,0h-.07V29a1.19,1.19,0,0,1-.17-.41l-.06-.26a1.29,1.29,0,0,1-.06-.25c0-.11,0-.21-.05-.32a.35.35,0,0,0,0-.06c0-.05,0-.07,0-.1h0l0,0a.38.38,0,0,1,0-.1.64.64,0,0,0,0-.28l0-.06-.05-.05.11-.08L18.05,27a.25.25,0,0,0,0-.25s0-.05,0-.06,0-.14,0-.2l.1,0-.14,0a.29.29,0,0,0,0-.09s0,0,0-.06,0-.12,0-.19,0-.08,0-.13,0-.11,0-.17l0,0a.32.32,0,0,1,0-.09.39.39,0,0,1,0-.18s0-.11,0-.16a.09.09,0,0,1,0,0c0-.05,0-.1,0-.16s.06-.1,0-.16l0-.05a.41.41,0,0,0,0-.08,1.87,1.87,0,0,0,0-.53l0,0a.27.27,0,0,1,0-.14s0-.08,0-.11,0-.09,0-.12a.35.35,0,0,0,0-.3l.06-.06-.06-.11a.28.28,0,0,0,0-.25.56.56,0,0,1,0-.36,0,0,0,0,0,0-.06s0-.09,0-.14a.18.18,0,0,1,0-.14s0-.09,0-.13a.11.11,0,0,1,0-.06.61.61,0,0,1,0-.11s0-.13,0-.15,0-.08,0-.12,0-.08,0-.09,0-.11,0-.14,0-.1,0-.15,0-.12,0-.17l0-.06,0,0,0,0a1.77,1.77,0,0,0,0-.76c0-.06,0-.14.05-.22l0-.05,0-.07,0-.06a.34.34,0,0,0,0-.28.1.1,0,0,1,0-.12.79.79,0,0,1,0-.13v-.45a1.34,1.34,0,0,1,0-.2.43.43,0,0,1,0-.19s0-.12,0-.18,0-.1,0-.14,0-.08,0-.12a.13.13,0,0,1,0-.09L18,18a1.34,1.34,0,0,0,0-.2c0-.06,0-.13,0-.19s0-.11,0-.17a.18.18,0,0,0,0-.12.11.11,0,0,1,.05-.15l-.1-.06L18,17c-.1-.1,0-.21,0-.34a.34.34,0,0,1,0,.08c-.09,0,0-.15-.09-.21a4.26,4.26,0,0,0-.1-.49h0l0,0h0l0,0"/><path class="cls-3" d="M24.78,13.34a1.47,1.47,0,0,0,.06-.27,2.56,2.56,0,0,1,.05-.27.87.87,0,0,1,.08-.26,2.13,2.13,0,0,0,.08-.27,2,2,0,0,1,.09-.26c0-.13.11-.25.14-.38s.06-.07.1-.12v-.09c.11-.05.08-.21.2-.26v-.07l.07,0c0-.07,0-.11-.07-.12l-.07,0s-.07,0-.13,0-.09,0-.14,0h-.1c-.07.06-.15,0-.22,0l-.24,0-.22,0-.22.06-.07,0-.26,0,0,0-.06,0-.19.05a1.55,1.55,0,0,0-.31.06c-.12.06-.27,0-.38.14h0a.73.73,0,0,0-.25.08.56.56,0,0,1-.2.08.4.4,0,0,0-.18.07l-.27.14a3.29,3.29,0,0,0-.46.23,3.81,3.81,0,0,1-.32.24l-.17.14a.54.54,0,0,1-.12.09.75.75,0,0,0-.17.14,1.22,1.22,0,0,0-.15.17l-.1.09-.1.1v.06c-.23.14-.3.42-.5.59,0,.09-.06.13-.1.19a1.43,1.43,0,0,0-.08.22s-.09,0-.09.09l0,0c-.12.16-.13.37-.26.52v.14a1,1,0,0,0-.13.34,2.45,2.45,0,0,1-.08.37.32.32,0,0,0,0,.14.29.29,0,0,1-.05.18c0,.06,0,.1,0,.14a.21.21,0,0,0,0,.07c0,.06,0,.14,0,.18s0,.12,0,.17,0,.11,0,.15,0,0,0,.06v.14c0,.13,0,.27,0,.39s0,.11,0,.14,0,.09,0,.13a4.18,4.18,0,0,1,0,.71.5.5,0,0,1,0,.12l-.1.06.1.07v.37a.68.68,0,0,1,0,.2s0,.11,0,.16,0,.06,0,.11,0,.09,0,.13V20a.22.22,0,0,1,0,.17.1.1,0,0,0,0,.09s0,.08,0,.13v.16c0,.05,0,.1,0,.14l0,0-.06.16,0,.06,0,.07a.13.13,0,0,1,0,.18l0,.07c0,.05,0,.1,0,.15s0,.11,0,.16,0,.28,0,.42a.79.79,0,0,1,0,.13s0,0,0,0a1.69,1.69,0,0,1,0,.32s.05,0,0,.08l0,0v0A.61.61,0,0,1,19,23c0,.07.06.12,0,.17v.12s0,.09,0,.14a1.12,1.12,0,0,1,0,.41c0,.14,0,.28,0,.43l-.06,0c0,.07,0,0,.06.08a1.25,1.25,0,0,1,0,.43.08.08,0,0,0,0,.07c0,.05,0,.11,0,.17s0,.14,0,.2,0,.08,0,.12a.41.41,0,0,1,0,.16v1.15c0,.06,0,.11,0,.15s0,.11,0,.12a.09.09,0,0,1,0,.14c.06.05,0,.11,0,.17s0,0,0,.05.05.26.08.38a2.7,2.7,0,0,0,0,.28c0,.1.06.19.08.3a1.38,1.38,0,0,0,.08.27s.12.27.13.28a.61.61,0,0,1,.12.16.59.59,0,0,0,.26.28v.08l.11,0a1.09,1.09,0,0,1,.13.17c0,.06.13.05.13.15h.09a.48.48,0,0,0,.11.08l.65.34.08.11,0-.11a1.11,1.11,0,0,0,.47.24h.11a.23.23,0,0,0,.07.07H22a.69.69,0,0,1,0,.1l.26,0,.07.07h.18a1,1,0,0,0,.17,0l.42,0h0a1,1,0,0,0,.41.07.43.43,0,0,1,.19,0,.26.26,0,0,0,.21,0s0,0,0,.05l.16,0c.06,0,.11,0,.18,0s.07,0,.12-.06a.37.37,0,0,0,.16-.3s0-.1,0-.11,0-.09,0-.13,0-.11,0-.17a1.34,1.34,0,0,1,0-.2c0-.23,0-.46,0-.69a1,1,0,0,1,0-.16,0,0,0,0,1,0,0,2.67,2.67,0,0,1,0-.4s0,0,0,0a.12.12,0,0,1,0-.17c0-.07,0-.11,0-.16a2,2,0,0,0,0-.6v0s0-.07,0-.11,0-.1,0-.15a.75.75,0,0,0,0-.15.53.53,0,0,0,0-.12.15.15,0,0,0,0-.07.41.41,0,0,0,0-.11.48.48,0,0,0,0-.12s0-.05,0-.07,0-.07,0-.09,0-.07,0-.09,0-.06,0-.09l0-.05s0,0,0,0,0-.24,0-.36a.21.21,0,0,1,0-.11.72.72,0,0,0,0-.41c0-.06.07-.17,0-.22s0-.18,0-.26,0-.1,0-.13,0-.14,0-.2a.65.65,0,0,0,0-.2V24a.21.21,0,0,0,0-.19,1,1,0,0,0,0-.17s0-.1,0-.14,0-.1,0-.15,0-.11,0-.18,0-.14,0-.23h0s0,0,0,0,0-.14,0-.17,0-.08,0-.11.06-.1,0-.12l0,0,0,0a1,1,0,0,0,0-.16c0-.08,0-.16,0-.22s0-.22,0-.33,0-.05,0-.08,0-.13,0-.19,0,0,0,0l0-.06,0-.07,0,0c0-.07,0-.13,0-.17a.27.27,0,0,1,0-.23c0-.08,0-.14,0-.21a2.17,2.17,0,0,0,0-.36s0-.09,0-.14a.39.39,0,0,0,0-.15s0-.1,0-.15a.32.32,0,0,0,0-.09.15.15,0,0,0,0-.16.33.33,0,0,1,0-.22.37.37,0,0,0,0-.18s-.05-.1,0-.13,0-.1,0-.14,0-.31,0-.46a.37.37,0,0,0,0-.11.31.31,0,0,1,0-.21.18.18,0,0,0,0-.16.18.18,0,0,1,0-.2s0,0,0,0a2.35,2.35,0,0,1,0-.26c0-.05,0-.13,0-.17a.72.72,0,0,1,0-.29s0-.05,0-.06a.16.16,0,0,1,0-.15.39.39,0,0,0,0-.3.27.27,0,0,0,0-.23.86.86,0,0,1,0-.22c0-.07,0-.16,0-.23l0,0a.92.92,0,0,1,0-.33,1,1,0,0,0,0-.17c0-.13,0-.28.08-.41a.39.39,0,0,1,0-.24c0-.07.05-.15,0-.21s0-.15,0-.22l.07-.06c-.09-.19,0-.36,0-.54a.11.11,0,0,0,0-.18l.07-.12,0,0"/></g></g></svg>