<?xml version="1.0" encoding="utf-8"?>
<!-- Generator: Adobe Illustrator 24.3.0, SVG Export Plug-In . SVG Version: 6.00 Build 0)  -->
<svg version="1.1" id="Layer_1" xmlns="http://www.w3.org/2000/svg" xmlns:xlink="http://www.w3.org/1999/xlink" x="0px" y="0px"
	 viewBox="0 0 12.76 17.11" style="enable-background:new 0 0 12.76 17.11;" xml:space="preserve">
<style type="text/css">
	.st0{fill:#FFFFFF;}
</style>
<path class="st0" d="M11.76,15.73l-0.4,0.23l-2.55-4.22L8.8,11.71c0.18-0.1,0.36-0.21,0.54-0.31c0.49-0.3,1.14-0.14,1.44,0.36
	l1.41,2.33C12.53,14.66,12.34,15.39,11.76,15.73 M10.82,16.27l-0.47,0.27c-1.03,0.59-5.07-1.06-7.86-5.66
	c-2.79-4.6-2.31-8.86-1.28-9.45l0.46-0.27l2.58,4.26c-0.05,0.04-0.1,0.07-0.14,0.1c-0.54,0.41,0.02,1.67,1.25,3.7
	c1.23,2.04,2.09,3.12,2.72,2.85c0.05-0.02,0.1-0.04,0.15-0.07l2.57,4.25L10.82,16.27z M5.33,4.78c-0.18,0.1-0.37,0.21-0.54,0.31
	L2.23,0.84l0.39-0.23C3.2,0.28,3.95,0.48,4.3,1.04l1.41,2.33C6.01,3.87,5.84,4.5,5.33,4.78"/>
</svg>
